<?xml version="1.0" encoding="us-ascii" standalone="no"?><svg xmlns="http://www.w3.org/2000/svg" xmlns:xlink="http://www.w3.org/1999/xlink" contentStyleType="text/css" height="2112.5px" preserveAspectRatio="none" style="width:21556px;height:2112px;background:#FFFFFF;" version="1.1" viewBox="0 0 21556 2112" width="21556.25px" zoomAndPan="magnify"><defs/><g><!--cluster edu--><g id="cluster_edu"><path d="M26.5625,18.75 L110.9375,18.75 A11.7188,11.7188 0 0 1 118.75,26.5625 L140.625,89.0259 L21526.5625,89.0259 A7.8125,7.8125 0 0 1 21534.375,96.8384 L21534.375,2085.7188 A7.8125,7.8125 0 0 1 21526.5625,2093.5313 L26.5625,2093.5313 A7.8125,7.8125 0 0 1 18.75,2085.7188 L18.75,26.5625 A7.8125,7.8125 0 0 1 26.5625,18.75 " fill="none" style="stroke:#000000;stroke-width:4.6875;"/><line style="stroke:#000000;stroke-width:4.6875;" x1="18.75" x2="140.625" y1="89.0259" y2="89.0259"/><text fill="#000000" font-family="sans-serif" font-size="43.75" font-weight="bold" lengthAdjust="spacing" textLength="81.25" x="31.25" y="67.2974">edu</text></g><!--cluster unisabana--><g id="cluster_unisabana"><path d="M101.5625,153.125 L332.8125,153.125 A11.7188,11.7188 0 0 1 340.625,160.9375 L362.5,223.4009 L21451.5625,223.4009 A7.8125,7.8125 0 0 1 21459.375,231.2134 L21459.375,2010.7187 A7.8125,7.8125 0 0 1 21451.5625,2018.5312 L101.5625,2018.5312 A7.8125,7.8125 0 0 1 93.75,2010.7187 L93.75,160.9375 A7.8125,7.8125 0 0 1 101.5625,153.125 " fill="none" style="stroke:#000000;stroke-width:4.6875;"/><line style="stroke:#000000;stroke-width:4.6875;" x1="93.75" x2="362.5" y1="223.4009" y2="223.4009"/><text fill="#000000" font-family="sans-serif" font-size="43.75" font-weight="bold" lengthAdjust="spacing" textLength="228.125" x="106.25" y="201.6724">unisabana</text></g><!--cluster pizzafactory--><g id="cluster_pizzafactory"><path d="M176.5625,287.5 L454.6875,287.5 A11.7188,11.7188 0 0 1 462.5,295.3125 L484.375,357.7759 L21376.5625,357.7759 A7.8125,7.8125 0 0 1 21384.375,365.5884 L21384.375,1935.7187 A7.8125,7.8125 0 0 1 21376.5625,1943.5312 L176.5625,1943.5312 A7.8125,7.8125 0 0 1 168.75,1935.7187 L168.75,295.3125 A7.8125,7.8125 0 0 1 176.5625,287.5 " fill="none" style="stroke:#000000;stroke-width:4.6875;"/><line style="stroke:#000000;stroke-width:4.6875;" x1="168.75" x2="484.375" y1="357.7759" y2="357.7759"/><text fill="#000000" font-family="sans-serif" font-size="43.75" font-weight="bold" lengthAdjust="spacing" textLength="275" x="181.25" y="336.0474">pizzafactory</text></g><!--cluster consoleview--><g id="cluster_consoleview"><path d="M251.5625,556.25 L529.6875,556.25 A11.7188,11.7188 0 0 1 537.5,564.0625 L559.375,626.5259 L5517.1875,626.5259 A7.8125,7.8125 0 0 1 5525,634.3384 L5525,1012.4062 A7.8125,7.8125 0 0 1 5517.1875,1020.2187 L251.5625,1020.2187 A7.8125,7.8125 0 0 1 243.75,1012.4062 L243.75,564.0625 A7.8125,7.8125 0 0 1 251.5625,556.25 " fill="none" style="stroke:#000000;stroke-width:4.6875;"/><line style="stroke:#000000;stroke-width:4.6875;" x1="243.75" x2="559.375" y1="626.5259" y2="626.5259"/><text fill="#000000" font-family="sans-serif" font-size="43.75" font-weight="bold" lengthAdjust="spacing" textLength="275" x="256.25" y="604.7974">consoleview</text></g><!--cluster model--><g id="cluster_model"><path d="M5667.1875,421.875 L5810.9375,421.875 A11.7188,11.7188 0 0 1 5818.75,429.6875 L5840.625,492.1509 L21301.5625,492.1509 A7.8125,7.8125 0 0 1 21309.375,499.9634 L21309.375,1860.7187 A7.8125,7.8125 0 0 1 21301.5625,1868.5312 L5667.1875,1868.5312 A7.8125,7.8125 0 0 1 5659.375,1860.7187 L5659.375,429.6875 A7.8125,7.8125 0 0 1 5667.1875,421.875 " fill="none" style="stroke:#000000;stroke-width:4.6875;"/><line style="stroke:#000000;stroke-width:4.6875;" x1="5659.375" x2="5840.625" y1="492.1509" y2="492.1509"/><text fill="#000000" font-family="sans-serif" font-size="43.75" font-weight="bold" lengthAdjust="spacing" textLength="140.625" x="5671.875" y="470.4224">model</text></g><!--cluster Fabricas--><g id="cluster_Fabricas"><path d="M5742.1875,556.25 L5929.6875,556.25 A11.7188,11.7188 0 0 1 5937.5,564.0625 L5959.375,626.5259 L11570.3125,626.5259 A7.8125,7.8125 0 0 1 11578.125,634.3384 L11578.125,1012.4062 A7.8125,7.8125 0 0 1 11570.3125,1020.2187 L5742.1875,1020.2187 A7.8125,7.8125 0 0 1 5734.375,1012.4062 L5734.375,564.0625 A7.8125,7.8125 0 0 1 5742.1875,556.25 " fill="none" style="stroke:#000000;stroke-width:4.6875;"/><line style="stroke:#000000;stroke-width:4.6875;" x1="5734.375" x2="5959.375" y1="626.5259" y2="626.5259"/><text fill="#000000" font-family="sans-serif" font-size="43.75" font-weight="bold" lengthAdjust="spacing" textLength="184.375" x="5746.875" y="604.7974">Fabricas</text></g><!--cluster ImplementacionesMD--><g id="cluster_ImplementacionesMD"><path d="M11798.4375,556.25 L12289.0625,556.25 A11.7188,11.7188 0 0 1 12296.875,564.0625 L12318.75,626.5259 L14457.8125,626.5259 A7.8125,7.8125 0 0 1 14465.625,634.3384 L14465.625,1012.4062 A7.8125,7.8125 0 0 1 14457.8125,1020.2187 L11798.4375,1020.2187 A7.8125,7.8125 0 0 1 11790.625,1012.4062 L11790.625,564.0625 A7.8125,7.8125 0 0 1 11798.4375,556.25 " fill="none" style="stroke:#000000;stroke-width:4.6875;"/><line style="stroke:#000000;stroke-width:4.6875;" x1="11790.625" x2="12318.75" y1="626.5259" y2="626.5259"/><text fill="#000000" font-family="sans-serif" font-size="43.75" font-weight="bold" lengthAdjust="spacing" textLength="487.5" x="11803.125" y="604.7974">ImplementacionesMD</text></g><!--cluster ImplementacionesMG--><g id="cluster_ImplementacionesMG"><path d="M14689.0625,556.25 L15176.5625,556.25 A11.7188,11.7188 0 0 1 15184.375,564.0625 L15206.25,626.5259 L16957.8125,626.5259 A7.8125,7.8125 0 0 1 16965.625,634.3384 L16965.625,1012.4062 A7.8125,7.8125 0 0 1 16957.8125,1020.2187 L14689.0625,1020.2187 A7.8125,7.8125 0 0 1 14681.25,1012.4062 L14681.25,564.0625 A7.8125,7.8125 0 0 1 14689.0625,556.25 " fill="none" style="stroke:#000000;stroke-width:4.6875;"/><line style="stroke:#000000;stroke-width:4.6875;" x1="14681.25" x2="15206.25" y1="626.5259" y2="626.5259"/><text fill="#000000" font-family="sans-serif" font-size="43.75" font-weight="bold" lengthAdjust="spacing" textLength="484.375" x="14693.75" y="604.7974">ImplementacionesMG</text></g><!--cluster ImplementacionesMI--><g id="cluster_ImplementacionesMI"><path d="M17189.0625,556.25 L17660.9375,556.25 A11.7188,11.7188 0 0 1 17668.75,564.0625 L17690.625,626.5259 L19457.8125,626.5259 A7.8125,7.8125 0 0 1 19465.625,634.3384 L19465.625,1012.4062 A7.8125,7.8125 0 0 1 19457.8125,1020.2187 L17189.0625,1020.2187 A7.8125,7.8125 0 0 1 17181.25,1012.4062 L17181.25,564.0625 A7.8125,7.8125 0 0 1 17189.0625,556.25 " fill="none" style="stroke:#000000;stroke-width:4.6875;"/><line style="stroke:#000000;stroke-width:4.6875;" x1="17181.25" x2="17690.625" y1="626.5259" y2="626.5259"/><text fill="#000000" font-family="sans-serif" font-size="43.75" font-weight="bold" lengthAdjust="spacing" textLength="468.75" x="17193.75" y="604.7974">ImplementacionesMI</text></g><!--cluster Interfaces--><g id="cluster_Interfaces"><path d="M11420.3125,1329.5938 L11645.3125,1329.5938 A11.7188,11.7188 0 0 1 11653.125,1337.4063 L11675,1399.8696 L15707.8125,1399.8696 A7.8125,7.8125 0 0 1 15715.625,1407.6821 L15715.625,1785.7187 A7.8125,7.8125 0 0 1 15707.8125,1793.5312 L11420.3125,1793.5312 A7.8125,7.8125 0 0 1 11412.5,1785.7187 L11412.5,1337.4063 A7.8125,7.8125 0 0 1 11420.3125,1329.5938 " fill="none" style="stroke:#000000;stroke-width:4.6875;"/><line style="stroke:#000000;stroke-width:4.6875;" x1="11412.5" x2="11675" y1="1399.8696" y2="1399.8696"/><text fill="#000000" font-family="sans-serif" font-size="43.75" font-weight="bold" lengthAdjust="spacing" textLength="221.875" x="11425" y="1378.1411">Interfaces</text></g><!--class PreparadorPizza--><g id="elem_PreparadorPizza"><rect codeLine="5" fill="#F1F1F1" height="304.5776" id="PreparadorPizza" rx="7.8125" ry="7.8125" style="stroke:#181818;stroke-width:1.5625;" width="5178.125" x="295.3125" y="665.625"/><ellipse cx="2694.5313" cy="715.625" fill="#ADD1B2" rx="34.375" ry="34.375" style="stroke:#181818;stroke-width:3.125;"/><path d="M2702.2598,734.8221 Q2700.444,735.7559 2698.4467,736.2228 Q2696.4493,736.6898 2694.2444,736.6898 Q2686.4105,736.6898 2682.2861,731.5277 Q2678.1616,726.3657 2678.1616,716.6122 Q2678.1616,706.8329 2682.2861,701.6708 Q2686.4105,696.5088 2694.2444,696.5088 Q2696.4493,696.5088 2698.4726,696.9757 Q2700.4959,697.4426 2702.2598,698.3765 L2702.2598,706.8848 Q2700.2884,705.069 2698.4337,704.2259 Q2696.579,703.3829 2694.6075,703.3829 Q2690.4053,703.3829 2688.2652,706.7162 Q2686.1252,710.0494 2686.1252,716.6122 Q2686.1252,723.1491 2688.2652,726.4824 Q2690.4053,729.8157 2694.6075,729.8157 Q2696.579,729.8157 2698.4337,728.9726 Q2700.2884,728.1296 2702.2598,726.3138 Z " fill="#000000"/><text fill="#000000" font-family="sans-serif" font-size="43.75" lengthAdjust="spacing" textLength="353.125" x="2758.5938" y="732.1594">PreparadorPizza</text><line style="stroke:#181818;stroke-width:1.5625;" x1="298.4375" x2="5470.3125" y1="765.625" y2="765.625"/><line style="stroke:#181818;stroke-width:1.5625;" x1="298.4375" x2="5470.3125" y1="790.625" y2="790.625"/><rect fill="#F24D5C" height="18.75" style="stroke:#C82930;stroke-width:3.125;" width="18.75" x="320.3125" y="824.2004"/><text fill="#000000" font-family="sans-serif" font-size="43.75" lengthAdjust="spacing" textLength="2118.75" x="357.8125" y="845.4224">aplicarIngredientes ( paramIngrediente;1 : [Ledu.unisabana.pizzafactory.model.Ingrediente; ) : void</text><ellipse cx="329.6875" cy="885.1013" fill="#84BE84" rx="9.375" ry="9.375" style="stroke:#038048;stroke-width:3.125;"/><text fill="#000000" font-family="sans-serif" font-size="43.75" lengthAdjust="spacing" text-decoration="underline" textLength="1028.125" x="357.8125" y="896.9482">main ( paramString;1 : [Ljava.lang.String; ) : void</text><ellipse cx="329.6875" cy="936.6272" fill="#84BE84" rx="9.375" ry="9.375" style="stroke:#038048;stroke-width:3.125;"/><text fill="#000000" font-family="sans-serif" font-size="43.75" lengthAdjust="spacing" textLength="5096.875" x="357.8125" y="948.4741">prepararPizza ( paramFabricaPizza1 : edu.unisabana.pizzafactory.model.Interfaces.FabricaPizza , paramIngrediente;2 : [Ledu.unisabana.pizzafactory.model.Ingrediente; , paramTamano3 : edu.unisabana.pizzafactory.model.Tamano ) : void</text></g><!--class ExcepcionParametrosInvalidos--><g id="elem_ExcepcionParametrosInvalidos"><rect codeLine="12" fill="#F1F1F1" height="150" id="ExcepcionParametrosInvalidos" rx="7.8125" ry="7.8125" style="stroke:#181818;stroke-width:1.5625;" width="753.125" x="19729.6875" y="742.9062"/><ellipse cx="19776.5625" cy="792.9062" fill="#ADD1B2" rx="34.375" ry="34.375" style="stroke:#181818;stroke-width:3.125;"/><path d="M19784.2911,812.1033 Q19782.4753,813.0372 19780.4779,813.5041 Q19778.4805,813.971 19776.2756,813.971 Q19768.4418,813.971 19764.3173,808.809 Q19760.1929,803.6469 19760.1929,793.8935 Q19760.1929,784.1141 19764.3173,778.9521 Q19768.4418,773.79 19776.2756,773.79 Q19778.4805,773.79 19780.5038,774.257 Q19782.5272,774.7239 19784.2911,775.6577 L19784.2911,784.166 Q19782.3196,782.3502 19780.4649,781.5072 Q19778.6102,780.6641 19776.6388,780.6641 Q19772.4365,780.6641 19770.2965,783.9974 Q19768.1564,787.3307 19768.1564,793.8935 Q19768.1564,800.4304 19770.2965,803.7636 Q19772.4365,807.0969 19776.6388,807.0969 Q19778.6102,807.0969 19780.4649,806.2539 Q19782.3196,805.4108 19784.2911,803.595 Z " fill="#000000"/><text fill="#000000" font-family="sans-serif" font-size="43.75" lengthAdjust="spacing" textLength="653.125" x="19820.3125" y="809.4407">ExcepcionParametrosInvalidos</text><line style="stroke:#181818;stroke-width:1.5625;" x1="19732.8125" x2="20479.6875" y1="842.9062" y2="842.9062"/><line style="stroke:#181818;stroke-width:1.5625;" x1="19732.8125" x2="20479.6875" y1="867.9062" y2="867.9062"/></g><!--class Ingrediente--><g id="elem_Ingrediente"><rect codeLine="88" fill="#F1F1F1" height="304.5776" id="Ingrediente" rx="7.8125" ry="7.8125" style="stroke:#181818;stroke-width:1.5625;" width="462.5" x="20796.875" y="665.625"/><ellipse cx="20895.7813" cy="715.625" fill="#ADD1B2" rx="34.375" ry="34.375" style="stroke:#181818;stroke-width:3.125;"/><path d="M20903.5098,734.8221 Q20901.694,735.7559 20899.6967,736.2228 Q20897.6993,736.6898 20895.4944,736.6898 Q20887.6605,736.6898 20883.5361,731.5277 Q20879.4116,726.3657 20879.4116,716.6122 Q20879.4116,706.8329 20883.5361,701.6708 Q20887.6605,696.5088 20895.4944,696.5088 Q20897.6993,696.5088 20899.7226,696.9757 Q20901.7459,697.4426 20903.5098,698.3765 L20903.5098,706.8848 Q20901.5384,705.069 20899.6837,704.2259 Q20897.829,703.3829 20895.8575,703.3829 Q20891.6553,703.3829 20889.5152,706.7162 Q20887.3752,710.0494 20887.3752,716.6122 Q20887.3752,723.1491 20889.5152,726.4824 Q20891.6553,729.8157 20895.8575,729.8157 Q20897.829,729.8157 20899.6837,728.9726 Q20901.5384,728.1296 20903.5098,726.3138 Z " fill="#000000"/><text fill="#000000" font-family="sans-serif" font-size="43.75" lengthAdjust="spacing" textLength="246.875" x="20951.0938" y="732.1594">Ingrediente</text><line style="stroke:#181818;stroke-width:1.5625;" x1="20800" x2="21256.25" y1="765.625" y2="765.625"/><ellipse cx="20831.25" cy="808.5754" fill="none" rx="9.375" ry="9.375" style="stroke:#038048;stroke-width:3.125;"/><text fill="#000000" font-family="sans-serif" font-size="43.75" lengthAdjust="spacing" textLength="278.125" x="20859.375" y="820.4224">cantidad : int</text><ellipse cx="20831.25" cy="860.1013" fill="none" rx="9.375" ry="9.375" style="stroke:#038048;stroke-width:3.125;"/><text fill="#000000" font-family="sans-serif" font-size="43.75" lengthAdjust="spacing" textLength="334.375" x="20859.375" y="871.9482">nombre : String</text><line style="stroke:#181818;stroke-width:1.5625;" x1="20800" x2="21256.25" y1="893.6768" y2="893.6768"/><ellipse cx="20831.25" cy="936.6272" fill="#84BE84" rx="9.375" ry="9.375" style="stroke:#038048;stroke-width:3.125;"/><text fill="#000000" font-family="sans-serif" font-size="43.75" lengthAdjust="spacing" textLength="381.25" x="20859.375" y="948.4741">toString () : String</text></g><!--class Tamano--><g id="elem_Tamano"><rect codeLine="119" fill="#F1F1F1" height="253.0518" id="Tamano" rx="7.8125" ry="7.8125" style="stroke:#181818;stroke-width:1.5625;" width="287.5" x="19962.5" y="1464.7187"/><ellipse cx="20015" cy="1514.7187" fill="#EB937F" rx="34.375" ry="34.375" style="stroke:#181818;stroke-width:3.125;"/><path d="M20026.2946,1535.0312 L20002.1704,1535.0312 L20002.1704,1496.3029 L20026.2946,1496.3029 L20026.2946,1503.0473 L20009.8227,1503.0473 L20009.8227,1511.4 L20024.7382,1511.4 L20024.7382,1518.1443 L20009.8227,1518.1443 L20009.8227,1528.2869 L20026.2946,1528.2869 Z " fill="#000000"/><text fill="#000000" font-family="sans-serif" font-size="43.75" lengthAdjust="spacing" textLength="175" x="20060" y="1531.2532">Tamano</text><line style="stroke:#181818;stroke-width:1.5625;" x1="19965.625" x2="20246.875" y1="1564.7187" y2="1564.7187"/><ellipse cx="19996.875" cy="1607.6692" fill="none" rx="9.375" ry="9.375" style="stroke:#038048;stroke-width:3.125;"/><text fill="#000000" font-family="sans-serif" font-size="43.75" lengthAdjust="spacing" textLength="203.125" x="20025" y="1619.5161">MEDIANO</text><ellipse cx="19996.875" cy="1659.1951" fill="none" rx="9.375" ry="9.375" style="stroke:#038048;stroke-width:3.125;"/><text fill="#000000" font-family="sans-serif" font-size="43.75" lengthAdjust="spacing" textLength="206.25" x="20025" y="1671.042">PEQUENO</text><line style="stroke:#181818;stroke-width:1.5625;" x1="19965.625" x2="20246.875" y1="1692.7705" y2="1692.7705"/></g><!--class FabricaPD--><g id="elem_FabricaPD"><rect codeLine="16" fill="#F1F1F1" height="304.5776" id="FabricaPD" rx="7.8125" ry="7.8125" style="stroke:#181818;stroke-width:1.5625;" width="1706.25" x="5784.375" y="665.625"/><ellipse cx="6517.9688" cy="715.625" fill="#ADD1B2" rx="34.375" ry="34.375" style="stroke:#181818;stroke-width:3.125;"/><path d="M6525.6973,734.8221 Q6523.8815,735.7559 6521.8842,736.2228 Q6519.8868,736.6898 6517.6819,736.6898 Q6509.848,736.6898 6505.7236,731.5277 Q6501.5991,726.3657 6501.5991,716.6122 Q6501.5991,706.8329 6505.7236,701.6708 Q6509.848,696.5088 6517.6819,696.5088 Q6519.8868,696.5088 6521.9101,696.9757 Q6523.9334,697.4426 6525.6973,698.3765 L6525.6973,706.8848 Q6523.7259,705.069 6521.8712,704.2259 Q6520.0165,703.3829 6518.045,703.3829 Q6513.8428,703.3829 6511.7027,706.7162 Q6509.5627,710.0494 6509.5627,716.6122 Q6509.5627,723.1491 6511.7027,726.4824 Q6513.8428,729.8157 6518.045,729.8157 Q6520.0165,729.8157 6521.8712,728.9726 Q6523.7259,728.1296 6525.6973,726.3138 Z " fill="#000000"/><text fill="#000000" font-family="sans-serif" font-size="43.75" lengthAdjust="spacing" textLength="212.5" x="6582.0313" y="732.1594">FabricaPD</text><line style="stroke:#181818;stroke-width:1.5625;" x1="5787.5" x2="7487.5" y1="765.625" y2="765.625"/><line style="stroke:#181818;stroke-width:1.5625;" x1="5787.5" x2="7487.5" y1="790.625" y2="790.625"/><ellipse cx="5818.75" cy="833.5754" fill="#84BE84" rx="9.375" ry="9.375" style="stroke:#038048;stroke-width:3.125;"/><text fill="#000000" font-family="sans-serif" font-size="43.75" lengthAdjust="spacing" textLength="1600" x="5846.875" y="845.4224">crearAmasador () : edu.unisabana.pizzafactory.model.Interfaces.Amasador</text><ellipse cx="5818.75" cy="885.1013" fill="#84BE84" rx="9.375" ry="9.375" style="stroke:#038048;stroke-width:3.125;"/><text fill="#000000" font-family="sans-serif" font-size="43.75" lengthAdjust="spacing" textLength="1625" x="5846.875" y="896.9482">crearHorneador () : edu.unisabana.pizzafactory.model.Interfaces.Horneador</text><ellipse cx="5818.75" cy="936.6272" fill="#84BE84" rx="9.375" ry="9.375" style="stroke:#038048;stroke-width:3.125;"/><text fill="#000000" font-family="sans-serif" font-size="43.75" lengthAdjust="spacing" textLength="1625" x="5846.875" y="948.4741">crearMoldeador () : edu.unisabana.pizzafactory.model.Interfaces.Moldeador</text></g><!--class FabricaPG--><g id="elem_FabricaPG"><rect codeLine="23" fill="#F1F1F1" height="304.5776" id="FabricaPG" rx="7.8125" ry="7.8125" style="stroke:#181818;stroke-width:1.5625;" width="1706.25" x="7803.125" y="665.625"/><ellipse cx="8536.7188" cy="715.625" fill="#ADD1B2" rx="34.375" ry="34.375" style="stroke:#181818;stroke-width:3.125;"/><path d="M8544.4473,734.8221 Q8542.6315,735.7559 8540.6342,736.2228 Q8538.6368,736.6898 8536.4319,736.6898 Q8528.598,736.6898 8524.4736,731.5277 Q8520.3491,726.3657 8520.3491,716.6122 Q8520.3491,706.8329 8524.4736,701.6708 Q8528.598,696.5088 8536.4319,696.5088 Q8538.6368,696.5088 8540.6601,696.9757 Q8542.6834,697.4426 8544.4473,698.3765 L8544.4473,706.8848 Q8542.4759,705.069 8540.6212,704.2259 Q8538.7665,703.3829 8536.795,703.3829 Q8532.5928,703.3829 8530.4527,706.7162 Q8528.3127,710.0494 8528.3127,716.6122 Q8528.3127,723.1491 8530.4527,726.4824 Q8532.5928,729.8157 8536.795,729.8157 Q8538.7665,729.8157 8540.6212,728.9726 Q8542.4759,728.1296 8544.4473,726.3138 Z " fill="#000000"/><text fill="#000000" font-family="sans-serif" font-size="43.75" lengthAdjust="spacing" textLength="212.5" x="8600.7813" y="732.1594">FabricaPG</text><line style="stroke:#181818;stroke-width:1.5625;" x1="7806.25" x2="9506.25" y1="765.625" y2="765.625"/><line style="stroke:#181818;stroke-width:1.5625;" x1="7806.25" x2="9506.25" y1="790.625" y2="790.625"/><ellipse cx="7837.5" cy="833.5754" fill="#84BE84" rx="9.375" ry="9.375" style="stroke:#038048;stroke-width:3.125;"/><text fill="#000000" font-family="sans-serif" font-size="43.75" lengthAdjust="spacing" textLength="1600" x="7865.625" y="845.4224">crearAmasador () : edu.unisabana.pizzafactory.model.Interfaces.Amasador</text><ellipse cx="7837.5" cy="885.1013" fill="#84BE84" rx="9.375" ry="9.375" style="stroke:#038048;stroke-width:3.125;"/><text fill="#000000" font-family="sans-serif" font-size="43.75" lengthAdjust="spacing" textLength="1625" x="7865.625" y="896.9482">crearHorneador () : edu.unisabana.pizzafactory.model.Interfaces.Horneador</text><ellipse cx="7837.5" cy="936.6272" fill="#84BE84" rx="9.375" ry="9.375" style="stroke:#038048;stroke-width:3.125;"/><text fill="#000000" font-family="sans-serif" font-size="43.75" lengthAdjust="spacing" textLength="1625" x="7865.625" y="948.4741">crearMoldeador () : edu.unisabana.pizzafactory.model.Interfaces.Moldeador</text></g><!--class FabricaPI--><g id="elem_FabricaPI"><rect codeLine="30" fill="#F1F1F1" height="304.5776" id="FabricaPI" rx="7.8125" ry="7.8125" style="stroke:#181818;stroke-width:1.5625;" width="1706.25" x="9821.875" y="665.625"/><ellipse cx="10564.8438" cy="715.625" fill="#ADD1B2" rx="34.375" ry="34.375" style="stroke:#181818;stroke-width:3.125;"/><path d="M10572.5723,734.8221 Q10570.7565,735.7559 10568.7592,736.2228 Q10566.7618,736.6898 10564.5569,736.6898 Q10556.723,736.6898 10552.5986,731.5277 Q10548.4741,726.3657 10548.4741,716.6122 Q10548.4741,706.8329 10552.5986,701.6708 Q10556.723,696.5088 10564.5569,696.5088 Q10566.7618,696.5088 10568.7851,696.9757 Q10570.8084,697.4426 10572.5723,698.3765 L10572.5723,706.8848 Q10570.6009,705.069 10568.7462,704.2259 Q10566.8915,703.3829 10564.92,703.3829 Q10560.7178,703.3829 10558.5777,706.7162 Q10556.4377,710.0494 10556.4377,716.6122 Q10556.4377,723.1491 10558.5777,726.4824 Q10560.7178,729.8157 10564.92,729.8157 Q10566.8915,729.8157 10568.7462,728.9726 Q10570.6009,728.1296 10572.5723,726.3138 Z " fill="#000000"/><text fill="#000000" font-family="sans-serif" font-size="43.75" lengthAdjust="spacing" textLength="193.75" x="10628.9063" y="732.1594">FabricaPI</text><line style="stroke:#181818;stroke-width:1.5625;" x1="9825" x2="11525" y1="765.625" y2="765.625"/><line style="stroke:#181818;stroke-width:1.5625;" x1="9825" x2="11525" y1="790.625" y2="790.625"/><ellipse cx="9856.25" cy="833.5754" fill="#84BE84" rx="9.375" ry="9.375" style="stroke:#038048;stroke-width:3.125;"/><text fill="#000000" font-family="sans-serif" font-size="43.75" lengthAdjust="spacing" textLength="1600" x="9884.375" y="845.4224">crearAmasador () : edu.unisabana.pizzafactory.model.Interfaces.Amasador</text><ellipse cx="9856.25" cy="885.1013" fill="#84BE84" rx="9.375" ry="9.375" style="stroke:#038048;stroke-width:3.125;"/><text fill="#000000" font-family="sans-serif" font-size="43.75" lengthAdjust="spacing" textLength="1625" x="9884.375" y="896.9482">crearHorneador () : edu.unisabana.pizzafactory.model.Interfaces.Horneador</text><ellipse cx="9856.25" cy="936.6272" fill="#84BE84" rx="9.375" ry="9.375" style="stroke:#038048;stroke-width:3.125;"/><text fill="#000000" font-family="sans-serif" font-size="43.75" lengthAdjust="spacing" textLength="1625" x="9884.375" y="948.4741">crearMoldeador () : edu.unisabana.pizzafactory.model.Interfaces.Moldeador</text></g><!--class AmasadorPizzaDelgada--><g id="elem_AmasadorPizzaDelgada"><rect codeLine="37" fill="#F1F1F1" height="201.5259" id="AmasadorPizzaDelgada" rx="7.8125" ry="7.8125" style="stroke:#181818;stroke-width:1.5625;" width="606.25" x="11840.625" y="717.1562"/><ellipse cx="11887.5" cy="767.1562" fill="#ADD1B2" rx="34.375" ry="34.375" style="stroke:#181818;stroke-width:3.125;"/><path d="M11895.2286,786.3533 Q11893.4128,787.2872 11891.4154,787.7541 Q11889.418,788.221 11887.2131,788.221 Q11879.3793,788.221 11875.2548,783.059 Q11871.1304,777.8969 11871.1304,768.1435 Q11871.1304,758.3641 11875.2548,753.2021 Q11879.3793,748.04 11887.2131,748.04 Q11889.418,748.04 11891.4413,748.507 Q11893.4647,748.9739 11895.2286,749.9077 L11895.2286,758.416 Q11893.2571,756.6002 11891.4024,755.7572 Q11889.5477,754.9141 11887.5763,754.9141 Q11883.374,754.9141 11881.234,758.2474 Q11879.0939,761.5807 11879.0939,768.1435 Q11879.0939,774.6804 11881.234,778.0136 Q11883.374,781.3469 11887.5763,781.3469 Q11889.5477,781.3469 11891.4024,780.5039 Q11893.2571,779.6608 11895.2286,777.845 Z " fill="#000000"/><text fill="#000000" font-family="sans-serif" font-size="43.75" lengthAdjust="spacing" textLength="506.25" x="11931.25" y="783.6907">AmasadorPizzaDelgada</text><line style="stroke:#181818;stroke-width:1.5625;" x1="11843.75" x2="12443.75" y1="817.1562" y2="817.1562"/><line style="stroke:#181818;stroke-width:1.5625;" x1="11843.75" x2="12443.75" y1="842.1562" y2="842.1562"/><ellipse cx="11875" cy="885.1067" fill="#84BE84" rx="9.375" ry="9.375" style="stroke:#038048;stroke-width:3.125;"/><text fill="#000000" font-family="sans-serif" font-size="43.75" lengthAdjust="spacing" textLength="328.125" x="11903.125" y="896.9536">amasar () : void</text></g><!--class HorneadorPizzaDelgada--><g id="elem_HorneadorPizzaDelgada"><rect codeLine="42" fill="#F1F1F1" height="201.5259" id="HorneadorPizzaDelgada" rx="7.8125" ry="7.8125" style="stroke:#181818;stroke-width:1.5625;" width="618.75" x="12759.375" y="717.1562"/><ellipse cx="12806.25" cy="767.1562" fill="#ADD1B2" rx="34.375" ry="34.375" style="stroke:#181818;stroke-width:3.125;"/><path d="M12813.9786,786.3533 Q12812.1628,787.2872 12810.1654,787.7541 Q12808.168,788.221 12805.9631,788.221 Q12798.1293,788.221 12794.0048,783.059 Q12789.8804,777.8969 12789.8804,768.1435 Q12789.8804,758.3641 12794.0048,753.2021 Q12798.1293,748.04 12805.9631,748.04 Q12808.168,748.04 12810.1913,748.507 Q12812.2147,748.9739 12813.9786,749.9077 L12813.9786,758.416 Q12812.0071,756.6002 12810.1524,755.7572 Q12808.2977,754.9141 12806.3263,754.9141 Q12802.124,754.9141 12799.984,758.2474 Q12797.8439,761.5807 12797.8439,768.1435 Q12797.8439,774.6804 12799.984,778.0136 Q12802.124,781.3469 12806.3263,781.3469 Q12808.2977,781.3469 12810.1524,780.5039 Q12812.0071,779.6608 12813.9786,777.845 Z " fill="#000000"/><text fill="#000000" font-family="sans-serif" font-size="43.75" lengthAdjust="spacing" textLength="518.75" x="12850" y="783.6907">HorneadorPizzaDelgada</text><line style="stroke:#181818;stroke-width:1.5625;" x1="12762.5" x2="13375" y1="817.1562" y2="817.1562"/><line style="stroke:#181818;stroke-width:1.5625;" x1="12762.5" x2="13375" y1="842.1562" y2="842.1562"/><ellipse cx="12793.75" cy="885.1067" fill="#84BE84" rx="9.375" ry="9.375" style="stroke:#038048;stroke-width:3.125;"/><text fill="#000000" font-family="sans-serif" font-size="43.75" lengthAdjust="spacing" textLength="343.75" x="12821.875" y="896.9536">hornear () : void</text></g><!--class MoldeadorPizzaDelgada--><g id="elem_MoldeadorPizzaDelgada"><rect codeLine="47" fill="#F1F1F1" height="304.5776" id="MoldeadorPizzaDelgada" rx="7.8125" ry="7.8125" style="stroke:#181818;stroke-width:1.5625;" width="728.125" x="13689.0625" y="665.625"/><ellipse cx="13785.1563" cy="715.625" fill="#ADD1B2" rx="34.375" ry="34.375" style="stroke:#181818;stroke-width:3.125;"/><path d="M13792.8848,734.8221 Q13791.069,735.7559 13789.0717,736.2228 Q13787.0743,736.6898 13784.8694,736.6898 Q13777.0355,736.6898 13772.9111,731.5277 Q13768.7866,726.3657 13768.7866,716.6122 Q13768.7866,706.8329 13772.9111,701.6708 Q13777.0355,696.5088 13784.8694,696.5088 Q13787.0743,696.5088 13789.0976,696.9757 Q13791.1209,697.4426 13792.8848,698.3765 L13792.8848,706.8848 Q13790.9134,705.069 13789.0587,704.2259 Q13787.204,703.3829 13785.2325,703.3829 Q13781.0303,703.3829 13778.8902,706.7162 Q13776.7502,710.0494 13776.7502,716.6122 Q13776.7502,723.1491 13778.8902,726.4824 Q13781.0303,729.8157 13785.2325,729.8157 Q13787.204,729.8157 13789.0587,728.9726 Q13790.9134,728.1296 13792.8848,726.3138 Z " fill="#000000"/><text fill="#000000" font-family="sans-serif" font-size="43.75" lengthAdjust="spacing" textLength="518.75" x="13839.8438" y="732.1594">MoldeadorPizzaDelgada</text><line style="stroke:#181818;stroke-width:1.5625;" x1="13692.1875" x2="14414.0625" y1="765.625" y2="765.625"/><line style="stroke:#181818;stroke-width:1.5625;" x1="13692.1875" x2="14414.0625" y1="790.625" y2="790.625"/><ellipse cx="13723.4375" cy="833.5754" fill="#84BE84" rx="9.375" ry="9.375" style="stroke:#038048;stroke-width:3.125;"/><text fill="#000000" font-family="sans-serif" font-size="43.75" lengthAdjust="spacing" textLength="618.75" x="13751.5625" y="845.4224">moldearPizzaGrande () : void</text><ellipse cx="13723.4375" cy="885.1013" fill="#84BE84" rx="9.375" ry="9.375" style="stroke:#038048;stroke-width:3.125;"/><text fill="#000000" font-family="sans-serif" font-size="43.75" lengthAdjust="spacing" textLength="643.75" x="13751.5625" y="896.9482">moldearPizzaMediana () : void</text><ellipse cx="13723.4375" cy="936.6272" fill="#84BE84" rx="9.375" ry="9.375" style="stroke:#038048;stroke-width:3.125;"/><text fill="#000000" font-family="sans-serif" font-size="43.75" lengthAdjust="spacing" textLength="646.875" x="13751.5625" y="948.4741">moldearPizzaPequena () : void</text></g><!--class AmasadorPG--><g id="elem_AmasadorPG"><rect codeLine="54" fill="#F1F1F1" height="201.5259" id="AmasadorPG" rx="7.8125" ry="7.8125" style="stroke:#181818;stroke-width:1.5625;" width="409.375" x="14729.6875" y="717.1562"/><ellipse cx="14792.0313" cy="767.1562" fill="#ADD1B2" rx="34.375" ry="34.375" style="stroke:#181818;stroke-width:3.125;"/><path d="M14799.7598,786.3533 Q14797.944,787.2872 14795.9467,787.7541 Q14793.9493,788.221 14791.7444,788.221 Q14783.9105,788.221 14779.7861,783.059 Q14775.6616,777.8969 14775.6616,768.1435 Q14775.6616,758.3641 14779.7861,753.2021 Q14783.9105,748.04 14791.7444,748.04 Q14793.9493,748.04 14795.9726,748.507 Q14797.9959,748.9739 14799.7598,749.9077 L14799.7598,758.416 Q14797.7884,756.6002 14795.9337,755.7572 Q14794.079,754.9141 14792.1075,754.9141 Q14787.9053,754.9141 14785.7652,758.2474 Q14783.6252,761.5807 14783.6252,768.1435 Q14783.6252,774.6804 14785.7652,778.0136 Q14787.9053,781.3469 14792.1075,781.3469 Q14794.079,781.3469 14795.9337,780.5039 Q14797.7884,779.6608 14799.7598,777.845 Z " fill="#000000"/><text fill="#000000" font-family="sans-serif" font-size="43.75" lengthAdjust="spacing" textLength="275" x="14839.2188" y="783.6907">AmasadorPG</text><line style="stroke:#181818;stroke-width:1.5625;" x1="14732.8125" x2="15135.9375" y1="817.1562" y2="817.1562"/><line style="stroke:#181818;stroke-width:1.5625;" x1="14732.8125" x2="15135.9375" y1="842.1562" y2="842.1562"/><ellipse cx="14764.0625" cy="885.1067" fill="#84BE84" rx="9.375" ry="9.375" style="stroke:#038048;stroke-width:3.125;"/><text fill="#000000" font-family="sans-serif" font-size="43.75" lengthAdjust="spacing" textLength="328.125" x="14792.1875" y="896.9536">amasar () : void</text></g><!--class HorneadorPG--><g id="elem_HorneadorPG"><rect codeLine="59" fill="#F1F1F1" height="201.5259" id="HorneadorPG" rx="7.8125" ry="7.8125" style="stroke:#181818;stroke-width:1.5625;" width="425" x="15450" y="717.1562"/><ellipse cx="15513.75" cy="767.1562" fill="#ADD1B2" rx="34.375" ry="34.375" style="stroke:#181818;stroke-width:3.125;"/><path d="M15521.4786,786.3533 Q15519.6628,787.2872 15517.6654,787.7541 Q15515.668,788.221 15513.4631,788.221 Q15505.6293,788.221 15501.5048,783.059 Q15497.3804,777.8969 15497.3804,768.1435 Q15497.3804,758.3641 15501.5048,753.2021 Q15505.6293,748.04 15513.4631,748.04 Q15515.668,748.04 15517.6913,748.507 Q15519.7147,748.9739 15521.4786,749.9077 L15521.4786,758.416 Q15519.5071,756.6002 15517.6524,755.7572 Q15515.7977,754.9141 15513.8263,754.9141 Q15509.624,754.9141 15507.484,758.2474 Q15505.3439,761.5807 15505.3439,768.1435 Q15505.3439,774.6804 15507.484,778.0136 Q15509.624,781.3469 15513.8263,781.3469 Q15515.7977,781.3469 15517.6524,780.5039 Q15519.5071,779.6608 15521.4786,777.845 Z " fill="#000000"/><text fill="#000000" font-family="sans-serif" font-size="43.75" lengthAdjust="spacing" textLength="287.5" x="15561.25" y="783.6907">HorneadorPG</text><line style="stroke:#181818;stroke-width:1.5625;" x1="15453.125" x2="15871.875" y1="817.1562" y2="817.1562"/><line style="stroke:#181818;stroke-width:1.5625;" x1="15453.125" x2="15871.875" y1="842.1562" y2="842.1562"/><ellipse cx="15484.375" cy="885.1067" fill="#84BE84" rx="9.375" ry="9.375" style="stroke:#038048;stroke-width:3.125;"/><text fill="#000000" font-family="sans-serif" font-size="43.75" lengthAdjust="spacing" textLength="343.75" x="15512.5" y="896.9536">hornear () : void</text></g><!--class MoldeadorPG--><g id="elem_MoldeadorPG"><rect codeLine="64" fill="#F1F1F1" height="304.5776" id="MoldeadorPG" rx="7.8125" ry="7.8125" style="stroke:#181818;stroke-width:1.5625;" width="728.125" x="16189.0625" y="665.625"/><ellipse cx="16396.0938" cy="715.625" fill="#ADD1B2" rx="34.375" ry="34.375" style="stroke:#181818;stroke-width:3.125;"/><path d="M16403.8223,734.8221 Q16402.0065,735.7559 16400.0092,736.2228 Q16398.0118,736.6898 16395.8069,736.6898 Q16387.973,736.6898 16383.8486,731.5277 Q16379.7241,726.3657 16379.7241,716.6122 Q16379.7241,706.8329 16383.8486,701.6708 Q16387.973,696.5088 16395.8069,696.5088 Q16398.0118,696.5088 16400.0351,696.9757 Q16402.0584,697.4426 16403.8223,698.3765 L16403.8223,706.8848 Q16401.8509,705.069 16399.9962,704.2259 Q16398.1415,703.3829 16396.17,703.3829 Q16391.9678,703.3829 16389.8277,706.7162 Q16387.6877,710.0494 16387.6877,716.6122 Q16387.6877,723.1491 16389.8277,726.4824 Q16391.9678,729.8157 16396.17,729.8157 Q16398.1415,729.8157 16399.9962,728.9726 Q16401.8509,728.1296 16403.8223,726.3138 Z " fill="#000000"/><text fill="#000000" font-family="sans-serif" font-size="43.75" lengthAdjust="spacing" textLength="287.5" x="16460.1563" y="732.1594">MoldeadorPG</text><line style="stroke:#181818;stroke-width:1.5625;" x1="16192.1875" x2="16914.0625" y1="765.625" y2="765.625"/><line style="stroke:#181818;stroke-width:1.5625;" x1="16192.1875" x2="16914.0625" y1="790.625" y2="790.625"/><ellipse cx="16223.4375" cy="833.5754" fill="#84BE84" rx="9.375" ry="9.375" style="stroke:#038048;stroke-width:3.125;"/><text fill="#000000" font-family="sans-serif" font-size="43.75" lengthAdjust="spacing" textLength="618.75" x="16251.5625" y="845.4224">moldearPizzaGrande () : void</text><ellipse cx="16223.4375" cy="885.1013" fill="#84BE84" rx="9.375" ry="9.375" style="stroke:#038048;stroke-width:3.125;"/><text fill="#000000" font-family="sans-serif" font-size="43.75" lengthAdjust="spacing" textLength="643.75" x="16251.5625" y="896.9482">moldearPizzaMediana () : void</text><ellipse cx="16223.4375" cy="936.6272" fill="#84BE84" rx="9.375" ry="9.375" style="stroke:#038048;stroke-width:3.125;"/><text fill="#000000" font-family="sans-serif" font-size="43.75" lengthAdjust="spacing" textLength="646.875" x="16251.5625" y="948.4741">moldearPizzaPequena () : void</text></g><!--class AmasadorPI--><g id="elem_AmasadorPI"><rect codeLine="71" fill="#F1F1F1" height="201.5259" id="AmasadorPI" rx="7.8125" ry="7.8125" style="stroke:#181818;stroke-width:1.5625;" width="409.375" x="17229.6875" y="717.1562"/><ellipse cx="17300.4688" cy="767.1562" fill="#ADD1B2" rx="34.375" ry="34.375" style="stroke:#181818;stroke-width:3.125;"/><path d="M17308.1973,786.3533 Q17306.3815,787.2872 17304.3842,787.7541 Q17302.3868,788.221 17300.1819,788.221 Q17292.348,788.221 17288.2236,783.059 Q17284.0991,777.8969 17284.0991,768.1435 Q17284.0991,758.3641 17288.2236,753.2021 Q17292.348,748.04 17300.1819,748.04 Q17302.3868,748.04 17304.4101,748.507 Q17306.4334,748.9739 17308.1973,749.9077 L17308.1973,758.416 Q17306.2259,756.6002 17304.3712,755.7572 Q17302.5165,754.9141 17300.545,754.9141 Q17296.3428,754.9141 17294.2027,758.2474 Q17292.0627,761.5807 17292.0627,768.1435 Q17292.0627,774.6804 17294.2027,778.0136 Q17296.3428,781.3469 17300.545,781.3469 Q17302.5165,781.3469 17304.3712,780.5039 Q17306.2259,779.6608 17308.1973,777.845 Z " fill="#000000"/><text fill="#000000" font-family="sans-serif" font-size="43.75" lengthAdjust="spacing" textLength="256.25" x="17349.5313" y="783.6907">AmasadorPI</text><line style="stroke:#181818;stroke-width:1.5625;" x1="17232.8125" x2="17635.9375" y1="817.1562" y2="817.1562"/><line style="stroke:#181818;stroke-width:1.5625;" x1="17232.8125" x2="17635.9375" y1="842.1562" y2="842.1562"/><ellipse cx="17264.0625" cy="885.1067" fill="#84BE84" rx="9.375" ry="9.375" style="stroke:#038048;stroke-width:3.125;"/><text fill="#000000" font-family="sans-serif" font-size="43.75" lengthAdjust="spacing" textLength="328.125" x="17292.1875" y="896.9536">amasar () : void</text></g><!--class HorneadorPI--><g id="elem_HorneadorPI"><rect codeLine="76" fill="#F1F1F1" height="201.5259" id="HorneadorPI" rx="7.8125" ry="7.8125" style="stroke:#181818;stroke-width:1.5625;" width="425" x="17950" y="717.1562"/><ellipse cx="18022.1875" cy="767.1562" fill="#ADD1B2" rx="34.375" ry="34.375" style="stroke:#181818;stroke-width:3.125;"/><path d="M18029.9161,786.3533 Q18028.1003,787.2872 18026.1029,787.7541 Q18024.1055,788.221 18021.9006,788.221 Q18014.0668,788.221 18009.9423,783.059 Q18005.8179,777.8969 18005.8179,768.1435 Q18005.8179,758.3641 18009.9423,753.2021 Q18014.0668,748.04 18021.9006,748.04 Q18024.1055,748.04 18026.1288,748.507 Q18028.1522,748.9739 18029.9161,749.9077 L18029.9161,758.416 Q18027.9446,756.6002 18026.0899,755.7572 Q18024.2352,754.9141 18022.2638,754.9141 Q18018.0615,754.9141 18015.9215,758.2474 Q18013.7814,761.5807 18013.7814,768.1435 Q18013.7814,774.6804 18015.9215,778.0136 Q18018.0615,781.3469 18022.2638,781.3469 Q18024.2352,781.3469 18026.0899,780.5039 Q18027.9446,779.6608 18029.9161,777.845 Z " fill="#000000"/><text fill="#000000" font-family="sans-serif" font-size="43.75" lengthAdjust="spacing" textLength="268.75" x="18071.5625" y="783.6907">HorneadorPI</text><line style="stroke:#181818;stroke-width:1.5625;" x1="17953.125" x2="18371.875" y1="817.1562" y2="817.1562"/><line style="stroke:#181818;stroke-width:1.5625;" x1="17953.125" x2="18371.875" y1="842.1562" y2="842.1562"/><ellipse cx="17984.375" cy="885.1067" fill="#84BE84" rx="9.375" ry="9.375" style="stroke:#038048;stroke-width:3.125;"/><text fill="#000000" font-family="sans-serif" font-size="43.75" lengthAdjust="spacing" textLength="343.75" x="18012.5" y="896.9536">hornear () : void</text></g><!--class MoldeadorPI--><g id="elem_MoldeadorPI"><rect codeLine="81" fill="#F1F1F1" height="304.5776" id="MoldeadorPI" rx="7.8125" ry="7.8125" style="stroke:#181818;stroke-width:1.5625;" width="728.125" x="18689.0625" y="665.625"/><ellipse cx="18905.4688" cy="715.625" fill="#ADD1B2" rx="34.375" ry="34.375" style="stroke:#181818;stroke-width:3.125;"/><path d="M18913.1973,734.8221 Q18911.3815,735.7559 18909.3842,736.2228 Q18907.3868,736.6898 18905.1819,736.6898 Q18897.348,736.6898 18893.2236,731.5277 Q18889.0991,726.3657 18889.0991,716.6122 Q18889.0991,706.8329 18893.2236,701.6708 Q18897.348,696.5088 18905.1819,696.5088 Q18907.3868,696.5088 18909.4101,696.9757 Q18911.4334,697.4426 18913.1973,698.3765 L18913.1973,706.8848 Q18911.2259,705.069 18909.3712,704.2259 Q18907.5165,703.3829 18905.545,703.3829 Q18901.3428,703.3829 18899.2027,706.7162 Q18897.0627,710.0494 18897.0627,716.6122 Q18897.0627,723.1491 18899.2027,726.4824 Q18901.3428,729.8157 18905.545,729.8157 Q18907.5165,729.8157 18909.3712,728.9726 Q18911.2259,728.1296 18913.1973,726.3138 Z " fill="#000000"/><text fill="#000000" font-family="sans-serif" font-size="43.75" lengthAdjust="spacing" textLength="268.75" x="18969.5313" y="732.1594">MoldeadorPI</text><line style="stroke:#181818;stroke-width:1.5625;" x1="18692.1875" x2="19414.0625" y1="765.625" y2="765.625"/><line style="stroke:#181818;stroke-width:1.5625;" x1="18692.1875" x2="19414.0625" y1="790.625" y2="790.625"/><ellipse cx="18723.4375" cy="833.5754" fill="#84BE84" rx="9.375" ry="9.375" style="stroke:#038048;stroke-width:3.125;"/><text fill="#000000" font-family="sans-serif" font-size="43.75" lengthAdjust="spacing" textLength="618.75" x="18751.5625" y="845.4224">moldearPizzaGrande () : void</text><ellipse cx="18723.4375" cy="885.1013" fill="#84BE84" rx="9.375" ry="9.375" style="stroke:#038048;stroke-width:3.125;"/><text fill="#000000" font-family="sans-serif" font-size="43.75" lengthAdjust="spacing" textLength="643.75" x="18751.5625" y="896.9482">moldearPizzaMediana () : void</text><ellipse cx="18723.4375" cy="936.6272" fill="#84BE84" rx="9.375" ry="9.375" style="stroke:#038048;stroke-width:3.125;"/><text fill="#000000" font-family="sans-serif" font-size="43.75" lengthAdjust="spacing" textLength="646.875" x="18751.5625" y="948.4741">moldearPizzaPequena () : void</text></g><!--class Amasador--><g id="elem_Amasador"><rect codeLine="95" fill="#F1F1F1" height="201.5259" id="Amasador" rx="7.8125" ry="7.8125" style="stroke:#181818;stroke-width:1.5625;" width="409.375" x="13479.6875" y="1490.4687"/><ellipse cx="13567.3438" cy="1540.4687" fill="#B4A7E5" rx="34.375" ry="34.375" style="stroke:#181818;stroke-width:3.125;"/><path d="M13556.1804,1528.7973 L13556.1804,1522.0529 L13579.241,1522.0529 L13579.241,1528.7973 L13571.5369,1528.7973 L13571.5369,1554.0369 L13579.241,1554.0369 L13579.241,1560.7812 L13556.1804,1560.7812 L13556.1804,1554.0369 L13563.8846,1554.0369 L13563.8846,1528.7973 Z " fill="#000000"/><text fill="#000000" font-family="sans-serif" font-size="43.75" font-style="italic" lengthAdjust="spacing" textLength="218.75" x="13620.1563" y="1557.0032">Amasador</text><line style="stroke:#181818;stroke-width:1.5625;" x1="13482.8125" x2="13885.9375" y1="1590.4687" y2="1590.4687"/><line style="stroke:#181818;stroke-width:1.5625;" x1="13482.8125" x2="13885.9375" y1="1615.4687" y2="1615.4687"/><ellipse cx="13514.0625" cy="1658.4192" fill="#84BE84" rx="9.375" ry="9.375" style="stroke:#038048;stroke-width:3.125;"/><text fill="#000000" font-family="sans-serif" font-size="43.75" font-style="italic" lengthAdjust="spacing" textLength="328.125" x="13542.1875" y="1670.2661">amasar () : void</text></g><!--class FabricaPizza--><g id="elem_FabricaPizza"><rect codeLine="100" fill="#F1F1F1" height="304.5776" id="FabricaPizza" rx="7.8125" ry="7.8125" style="stroke:#181818;stroke-width:1.5625;" width="1706.25" x="11462.5" y="1438.9687"/><ellipse cx="12167.9688" cy="1488.9687" fill="#B4A7E5" rx="34.375" ry="34.375" style="stroke:#181818;stroke-width:3.125;"/><path d="M12156.8054,1477.2973 L12156.8054,1470.5529 L12179.866,1470.5529 L12179.866,1477.2973 L12172.1619,1477.2973 L12172.1619,1502.5369 L12179.866,1502.5369 L12179.866,1509.2812 L12156.8054,1509.2812 L12156.8054,1502.5369 L12164.5096,1502.5369 L12164.5096,1477.2973 Z " fill="#000000"/><text fill="#000000" font-family="sans-serif" font-size="43.75" font-style="italic" lengthAdjust="spacing" textLength="268.75" x="12232.0313" y="1505.5032">FabricaPizza</text><line style="stroke:#181818;stroke-width:1.5625;" x1="11465.625" x2="13165.625" y1="1538.9687" y2="1538.9687"/><line style="stroke:#181818;stroke-width:1.5625;" x1="11465.625" x2="13165.625" y1="1563.9687" y2="1563.9687"/><ellipse cx="11496.875" cy="1606.9192" fill="#84BE84" rx="9.375" ry="9.375" style="stroke:#038048;stroke-width:3.125;"/><text fill="#000000" font-family="sans-serif" font-size="43.75" font-style="italic" lengthAdjust="spacing" textLength="1600" x="11525" y="1618.7661">crearAmasador () : edu.unisabana.pizzafactory.model.Interfaces.Amasador</text><ellipse cx="11496.875" cy="1658.4451" fill="#84BE84" rx="9.375" ry="9.375" style="stroke:#038048;stroke-width:3.125;"/><text fill="#000000" font-family="sans-serif" font-size="43.75" font-style="italic" lengthAdjust="spacing" textLength="1625" x="11525" y="1670.292">crearHorneador () : edu.unisabana.pizzafactory.model.Interfaces.Horneador</text><ellipse cx="11496.875" cy="1709.9709" fill="#84BE84" rx="9.375" ry="9.375" style="stroke:#038048;stroke-width:3.125;"/><text fill="#000000" font-family="sans-serif" font-size="43.75" font-style="italic" lengthAdjust="spacing" textLength="1625" x="11525" y="1721.8179">crearMoldeador () : edu.unisabana.pizzafactory.model.Interfaces.Moldeador</text></g><!--class Horneador--><g id="elem_Horneador"><rect codeLine="107" fill="#F1F1F1" height="201.5259" id="Horneador" rx="7.8125" ry="7.8125" style="stroke:#181818;stroke-width:1.5625;" width="425" x="14200" y="1490.4687"/><ellipse cx="14289.0625" cy="1540.4687" fill="#B4A7E5" rx="34.375" ry="34.375" style="stroke:#181818;stroke-width:3.125;"/><path d="M14277.8992,1528.7973 L14277.8992,1522.0529 L14300.9598,1522.0529 L14300.9598,1528.7973 L14293.2556,1528.7973 L14293.2556,1554.0369 L14300.9598,1554.0369 L14300.9598,1560.7812 L14277.8992,1560.7812 L14277.8992,1554.0369 L14285.6033,1554.0369 L14285.6033,1528.7973 Z " fill="#000000"/><text fill="#000000" font-family="sans-serif" font-size="43.75" font-style="italic" lengthAdjust="spacing" textLength="231.25" x="14342.1875" y="1557.0032">Horneador</text><line style="stroke:#181818;stroke-width:1.5625;" x1="14203.125" x2="14621.875" y1="1590.4687" y2="1590.4687"/><line style="stroke:#181818;stroke-width:1.5625;" x1="14203.125" x2="14621.875" y1="1615.4687" y2="1615.4687"/><ellipse cx="14234.375" cy="1658.4192" fill="#84BE84" rx="9.375" ry="9.375" style="stroke:#038048;stroke-width:3.125;"/><text fill="#000000" font-family="sans-serif" font-size="43.75" font-style="italic" lengthAdjust="spacing" textLength="343.75" x="14262.5" y="1670.2661">hornear () : void</text></g><!--class Moldeador--><g id="elem_Moldeador"><rect codeLine="112" fill="#F1F1F1" height="304.5776" id="Moldeador" rx="7.8125" ry="7.8125" style="stroke:#181818;stroke-width:1.5625;" width="728.125" x="14939.0625" y="1438.9687"/><ellipse cx="15174.2188" cy="1488.9687" fill="#B4A7E5" rx="34.375" ry="34.375" style="stroke:#181818;stroke-width:3.125;"/><path d="M15163.0554,1477.2973 L15163.0554,1470.5529 L15186.116,1470.5529 L15186.116,1477.2973 L15178.4119,1477.2973 L15178.4119,1502.5369 L15186.116,1502.5369 L15186.116,1509.2812 L15163.0554,1509.2812 L15163.0554,1502.5369 L15170.7596,1502.5369 L15170.7596,1477.2973 Z " fill="#000000"/><text fill="#000000" font-family="sans-serif" font-size="43.75" font-style="italic" lengthAdjust="spacing" textLength="231.25" x="15238.2813" y="1505.5032">Moldeador</text><line style="stroke:#181818;stroke-width:1.5625;" x1="14942.1875" x2="15664.0625" y1="1538.9687" y2="1538.9687"/><line style="stroke:#181818;stroke-width:1.5625;" x1="14942.1875" x2="15664.0625" y1="1563.9687" y2="1563.9687"/><ellipse cx="14973.4375" cy="1606.9192" fill="#84BE84" rx="9.375" ry="9.375" style="stroke:#038048;stroke-width:3.125;"/><text fill="#000000" font-family="sans-serif" font-size="43.75" font-style="italic" lengthAdjust="spacing" textLength="618.75" x="15001.5625" y="1618.7661">moldearPizzaGrande () : void</text><ellipse cx="14973.4375" cy="1658.4451" fill="#84BE84" rx="9.375" ry="9.375" style="stroke:#038048;stroke-width:3.125;"/><text fill="#000000" font-family="sans-serif" font-size="43.75" font-style="italic" lengthAdjust="spacing" textLength="643.75" x="15001.5625" y="1670.292">moldearPizzaMediana () : void</text><ellipse cx="14973.4375" cy="1709.9709" fill="#84BE84" rx="9.375" ry="9.375" style="stroke:#038048;stroke-width:3.125;"/><text fill="#000000" font-family="sans-serif" font-size="43.75" font-style="italic" lengthAdjust="spacing" textLength="646.875" x="15001.5625" y="1721.8179">moldearPizzaPequena () : void</text></g><!--link FabricaPD to FabricaPizza--><g id="link_FabricaPD_FabricaPizza"><path codeLine="127" d="M7268.2188,971.5625 C7393.25,998.4375 7523.8438,1024.4375 7646.875,1045.2188 C8971,1268.625 10465.9853,1424.0169 11405.0165,1510.1731 " fill="none" id="FabricaPD-to-FabricaPizza" style="stroke:#181818;stroke-width:3.125;stroke-dasharray:7.0,7.0;"/><polygon fill="none" points="11461.0313,1515.3125,11406.7296,1491.5016,11403.3034,1528.8447,11461.0313,1515.3125" style="stroke:#181818;stroke-width:3.125;"/></g><!--link FabricaPG to FabricaPizza--><g id="link_FabricaPG_FabricaPizza"><path codeLine="128" d="M9326.4688,971.5 C9439.5938,996.4375 9555.9063,1021.7812 9665.625,1045.2188 C10305.1563,1181.7188 10977.8939,1319.2111 11508.7689,1426.3986 " fill="none" id="FabricaPG-to-FabricaPizza" style="stroke:#181818;stroke-width:3.125;stroke-dasharray:7.0,7.0;"/><polygon fill="none" points="11563.9063,1437.5313,11512.4798,1408.0195,11505.058,1444.7777,11563.9063,1437.5313" style="stroke:#181818;stroke-width:3.125;"/></g><!--link FabricaPI to FabricaPizza--><g id="link_FabricaPI_FabricaPizza"><path codeLine="129" d="M10997.1875,971.6875 C11285.5313,1106.5 11655.1052,1279.3044 11943.2302,1413.9919 " fill="none" id="FabricaPI-to-FabricaPizza" style="stroke:#181818;stroke-width:3.125;stroke-dasharray:7.0,7.0;"/><polygon fill="none" points="11994.1875,1437.8125,11951.1704,1397.0062,11935.29,1430.9777,11994.1875,1437.8125" style="stroke:#181818;stroke-width:3.125;"/></g><!--link AmasadorPizzaDelgada to Amasador--><g id="link_AmasadorPizzaDelgada_Amasador"><path codeLine="130" d="M12334.9375,920.125 C12416.625,960.9375 12513.5938,1007.4062 12603.125,1045.2188 C12917.1875,1177.7812 13026.875,1139.2187 13325,1304.5938 C13417.4375,1355.8437 13468.4573,1393.3601 13536.8635,1453.1414 " fill="none" id="AmasadorPizzaDelgada-to-Amasador" style="stroke:#181818;stroke-width:3.125;stroke-dasharray:7.0,7.0;"/><polygon fill="none" points="13579.2188,1490.1562,13549.2018,1439.023,13524.5253,1467.2598,13579.2188,1490.1562" style="stroke:#181818;stroke-width:3.125;"/></g><!--link HorneadorPizzaDelgada to Horneador--><g id="link_HorneadorPizzaDelgada_Horneador"><path codeLine="131" d="M13273.0938,919.75 C13537.5938,1047.9062 13973.125,1260.5 14043.75,1304.5938 C14132.4688,1359.9375 14182.1946,1396.2872 14252.7571,1453.8497 " fill="none" id="HorneadorPizzaDelgada-to-Horneador" style="stroke:#181818;stroke-width:3.125;stroke-dasharray:7.0,7.0;"/><polygon fill="none" points="14296.3438,1489.4062,14264.6093,1439.3208,14240.9049,1468.3786,14296.3438,1489.4062" style="stroke:#181818;stroke-width:3.125;"/></g><!--link MoldeadorPizzaDelgada to Moldeador--><g id="link_MoldeadorPizzaDelgada_Moldeador"><path codeLine="132" d="M14298.5938,971.6875 C14518.2813,1106.5 14790.7419,1273.7093 15010.2732,1408.3968 " fill="none" id="MoldeadorPizzaDelgada-to-Moldeador" style="stroke:#181818;stroke-width:3.125;stroke-dasharray:7.0,7.0;"/><polygon fill="none" points="15058.2188,1437.8125,15020.0784,1392.4149,15000.4679,1424.3786,15058.2188,1437.8125" style="stroke:#181818;stroke-width:3.125;"/></g><!--link AmasadorPG to Amasador--><g id="link_AmasadorPG_Amasador"><path codeLine="133" d="M14750.9375,920.125 C14495.0938,1058.4062 14060.3125,1293.6563 14043.75,1304.5938 C13958.4688,1360.7812 13911.5759,1396.0885 13842.8571,1453.0885 " fill="none" id="AmasadorPG-to-Amasador" style="stroke:#181818;stroke-width:3.125;stroke-dasharray:7.0,7.0;"/><polygon fill="none" points="13799.5625,1489,13854.8276,1467.52,13830.8866,1438.6569,13799.5625,1489" style="stroke:#181818;stroke-width:3.125;"/></g><!--link HorneadorPG to Horneador--><g id="link_HorneadorPG_Horneador"><path codeLine="134" d="M15505.2188,920.2187 C15440.375,960.1875 15364.0938,1006 15293.75,1045.2188 C15071.8438,1168.9062 14999.4688,1169.375 14784.375,1304.5938 C14695.7188,1360.3125 14645.793,1396.6117 14574.6055,1453.893 " fill="none" id="HorneadorPG-to-Horneador" style="stroke:#181818;stroke-width:3.125;stroke-dasharray:7.0,7.0;"/><polygon fill="none" points="14530.7813,1489.1563,14586.3599,1468.501,14562.851,1439.2849,14530.7813,1489.1563" style="stroke:#181818;stroke-width:3.125;"/></g><!--link MoldeadorPG to Moldeador--><g id="link_MoldeadorPG_Moldeador"><path codeLine="135" d="M16256.3438,971.5 C16084.0313,1062.1875 15864.7812,1183.3125 15678.125,1304.5938 C15615.5,1345.25 15594.4744,1359.0203 15535.8181,1403.6766 " fill="none" id="MoldeadorPG-to-Moldeador" style="stroke:#181818;stroke-width:3.125;stroke-dasharray:7.0,7.0;"/><polygon fill="none" points="15491.0625,1437.75,15547.1759,1418.5951,15524.4603,1388.7581,15491.0625,1437.75" style="stroke:#181818;stroke-width:3.125;"/></g><!--link AmasadorPI to Amasador--><g id="link_AmasadorPI_Amasador"><path codeLine="136" d="M17286.9063,919.7187 C17210.2188,965.9687 17113,1017 17018.75,1045.2188 C15747.2187,1425.75 15277.5625,815.4062 14043.75,1304.5938 C13941.0625,1345.2812 13884.4948,1386.3985 13817.1511,1451.1173 " fill="none" id="AmasadorPI-to-Amasador" style="stroke:#181818;stroke-width:3.125;stroke-dasharray:7.0,7.0;"/><polygon fill="none" points="13776.5938,1490.0937,13830.1432,1464.6364,13804.1589,1437.5982,13776.5938,1490.0937" style="stroke:#181818;stroke-width:3.125;"/></g><!--link HorneadorPI to Horneador--><g id="link_HorneadorPI_Horneador"><path codeLine="137" d="M18033.2188,919.9687 C17965.5625,966.25 17879.1875,1017.25 17793.75,1045.2188 C16517.8125,1462.5 16036.625,820.75 14784.375,1304.5938 C14679.0938,1345.25 14619.825,1387.1484 14549.8563,1451.8671 " fill="none" id="HorneadorPI-to-Horneador" style="stroke:#181818;stroke-width:3.125;stroke-dasharray:7.0,7.0;"/><polygon fill="none" points="14508.5625,1490.0625,14562.5881,1465.6317,14537.1245,1438.1025,14508.5625,1490.0625" style="stroke:#181818;stroke-width:3.125;"/></g><!--link MoldeadorPI to Moldeador--><g id="link_MoldeadorPI_Moldeador"><path codeLine="138" d="M18746.9063,971.5 C18677.4063,1000.2812 18602.9375,1027.0313 18531.25,1045.2188 C17296.9688,1357.9687 16865.6875,845.2812 15678.125,1304.5938 C15599.7188,1334.9062 15567.322,1351.221 15504.4783,1402.346 " fill="none" id="MoldeadorPI-to-Moldeador" style="stroke:#181818;stroke-width:3.125;stroke-dasharray:7.0,7.0;"/><polygon fill="none" points="15460.8438,1437.8437,15516.3108,1416.8908,15492.6457,1387.8011,15460.8438,1437.8437" style="stroke:#181818;stroke-width:3.125;"/></g><!--SRC=[xLVVRzCm47ucVuKVDnMYZOaNa90cjGHB58g09vwkyQqpI-nWkmLM-h_Z_6ZYgCr8qZRIfBrUxkwx-pxxVD5tN2IW82OiuUJguiBJfKM1kDEOaCjNhbL8XfdL-dfX15eJP4j_ARY6EGZm4tv_3pSG6gd- -A4KMaQuulZBdobCKp2fPgaBMNlFrZ6QMyasv0Ka4Gz1KR5Go3WAWvgSaGpIiRsv9A_9zmyF0CQslCXtGyYvZLb9pXmuijO630ytP1G35rkaBqPniIX0Vi0A_0Z4mY_C-nADahofegKYppkOAzjDPakJjQZNeB8crBuRIvxlCl2o1mD5cgyGWv1NRGhANQkEDruBiVFGoUyGav1BCKinqIYfgLX1n9dKLlCEcGegAax6jJCp2XM2kev1fsUAd9rtP7eRkPFolLG2- -KiGtUIJcN4UYOjGmyYBtWYhpzvz8cyrkJHE8amjfC7qYc0UZek6ywcsXYZ1R3w_1z1wb5Ks7NYx04isMX6lCrSZWTPSjKC6MSkkKDWdrU63dg3tzHESLl4_nrd-7E9DST3-WagpO8JAXKuIWMdr2Tmz0aUhIgqKeMUK1Ngg49FgGfrLA6FHfLgjSfAlk4OPSCMXE4Cc4t9XN4-21dF5LfplaYwHHcPs_9AYkzfBNmxX7izB3KgoHhcsYWRqtHE-e7LDjL6mEC_bRlfZ_nixW8SxGdjntJLNoFD- -zbFxYgsqQubhUpCUQXczeOjF_MebZ6hNzetFiwdOpfzSTFZcKs-VnjOYrfMfkun_-9x_zzIthV8g_FLZyu93qvPDiDidiTvJWvtbBPlOXgvXnlp-nUHJMO3jmE1rMXlZ0EotrzXnoMyThcDoZZzMLmMCRh- -4XZ7l_0000]--></g></svg>